<svg width="21" height="21" viewBox="0 0 21 21" fill="none" xmlns="http://www.w3.org/2000/svg">
<circle cx="10.407" cy="10.407" r="10.407" fill="#D9D9D9"/>
<path fill-rule="evenodd" clip-rule="evenodd" d="M7.72013 7.04871C7.72013 6.33617 8.00319 5.65281 8.50703 5.14896C9.01088 4.64512 9.69424 4.36206 10.4068 4.36206C11.1193 4.36206 11.8027 4.64512 12.3065 5.14896C12.8104 5.65281 13.0934 6.33617 13.0934 7.04871C13.0934 7.76126 12.8104 8.44462 12.3065 8.94846C11.8027 9.45231 11.1193 9.73537 10.4068 9.73537C9.69424 9.73537 9.01088 9.45231 8.50703 8.94846C8.00319 8.44462 7.72013 7.76126 7.72013 7.04871ZM7.72013 11.0787C6.82945 11.0787 5.97525 11.4325 5.34544 12.0623C4.71564 12.6921 4.36182 13.5463 4.36182 14.437C4.36182 14.9714 4.57411 15.4839 4.95199 15.8618C5.32988 16.2397 5.8424 16.452 6.37681 16.452H14.4368C14.9712 16.452 15.4837 16.2397 15.8616 15.8618C16.2395 15.4839 16.4518 14.9714 16.4518 14.437C16.4518 13.5463 16.0979 12.6921 15.4681 12.0623C14.8383 11.4325 13.9841 11.0787 13.0934 11.0787H7.72013Z" fill="#989898"/>
</svg>
