<svg width="13" height="13" viewBox="0 0 13 13" fill="none" xmlns="http://www.w3.org/2000/svg">
<circle cx="6.30908" cy="6.30908" r="6.30908" fill="#F2F2F2"/>
<path d="M6.31012 4.97289L3.6404 8.21469C3.58918 8.27632 3.52805 8.30686 3.45699 8.3063C3.38617 8.30546 3.32527 8.27408 3.27428 8.21217C3.2233 8.15026 3.19781 8.07617 3.19781 7.98989C3.19781 7.90361 3.22318 7.82951 3.27394 7.76761L5.91701 4.55689C5.97307 4.4891 6.03536 4.43952 6.10388 4.40815C6.17285 4.37677 6.24172 4.36108 6.31046 4.36108C6.37921 4.36108 6.44796 4.37677 6.51671 4.40815C6.58545 4.43952 6.64774 4.4891 6.70357 4.55689L9.34838 7.76719C9.39936 7.82909 9.42451 7.90361 9.42381 7.99073C9.42312 8.07757 9.39728 8.15208 9.3463 8.21427C9.29532 8.27646 9.2343 8.30728 9.16324 8.30672C9.09242 8.30672 9.0314 8.2759 8.98019 8.21427L6.31012 4.97289Z" fill="#6D6D6D"/>
</svg>
