<svg width="6" height="9" viewBox="0 0 6 9" fill="none" xmlns="http://www.w3.org/2000/svg">
<path d="M4.71981 4.40609L0.130407 0.62658C0.0431601 0.554076 -6.72257e-05 0.467528 0.00072594 0.366937C0.00191568 0.266673 0.046333 0.180452 0.133977 0.108275C0.221621 0.0360973 0.326515 9.2417e-06 0.448661 9.25238e-06C0.570808 9.26306e-06 0.675702 0.0359343 0.763346 0.107785L5.30873 3.84957C5.4047 3.92894 5.4749 4.01712 5.51931 4.11411C5.56373 4.21177 5.58594 4.30925 5.58594 4.40658C5.58594 4.5039 5.56373 4.60123 5.51931 4.69855C5.4749 4.79588 5.4047 4.88406 5.30873 4.96309L0.76394 8.70733C0.676296 8.77951 0.570806 8.81511 0.44747 8.81413C0.324531 8.81315 0.219042 8.77657 0.131001 8.70439C0.0429607 8.63221 -0.000662473 8.54583 0.000130693 8.44524C0.000130702 8.34498 0.0437539 8.25859 0.131001 8.18609L4.71981 4.40609Z" fill="#989898"/>
</svg>
