<svg width="21" height="21" viewBox="0 0 21 21" fill="none" xmlns="http://www.w3.org/2000/svg">
<circle cx="10.407" cy="10.407" r="10.407" fill="#D9D9D9"/>
<path fill-rule="evenodd" clip-rule="evenodd" d="M9.8234 15.0736C9.8234 14.9189 9.76195 14.7706 9.65255 14.6612C9.54315 14.5518 9.39478 14.4903 9.24007 14.4903H6.3234V6.32365H9.24007C9.39478 6.32365 9.54315 6.26219 9.65255 6.15279C9.76195 6.0434 9.8234 5.89503 9.8234 5.74032C9.8234 5.58561 9.76195 5.43723 9.65255 5.32784C9.54315 5.21844 9.39478 5.15698 9.24007 5.15698H6.3234C6.01399 5.15698 5.71724 5.2799 5.49845 5.49869C5.27965 5.71748 5.15674 6.01423 5.15674 6.32365V14.4903C5.15674 14.7997 5.27965 15.0965 5.49845 15.3153C5.71724 15.5341 6.01399 15.657 6.3234 15.657H9.24007C9.39478 15.657 9.54315 15.5955 9.65255 15.4861C9.76195 15.3767 9.8234 15.2284 9.8234 15.0736Z" fill="#989898"/>
<path d="M16.0731 10.8153C16.1798 10.7069 16.2397 10.5609 16.2399 10.4087V10.4052C16.2396 10.2511 16.1781 10.1034 16.069 9.99457L13.7357 7.66124C13.6818 7.60552 13.6175 7.56109 13.5463 7.53051C13.4751 7.49994 13.3986 7.48385 13.3211 7.48318C13.2437 7.4825 13.1669 7.49726 13.0952 7.52659C13.0235 7.55592 12.9584 7.59924 12.9036 7.65401C12.8488 7.70878 12.8055 7.77391 12.7762 7.8456C12.7468 7.91729 12.7321 7.9941 12.7328 8.07156C12.7334 8.14901 12.7495 8.22556 12.7801 8.29672C12.8107 8.36789 12.8551 8.43226 12.9108 8.48607L14.2484 9.82366H8.65658C8.50187 9.82366 8.35349 9.88511 8.2441 9.99451C8.1347 10.1039 8.07324 10.2523 8.07324 10.407C8.07324 10.5617 8.1347 10.7101 8.2441 10.8195C8.35349 10.9289 8.50187 10.9903 8.65658 10.9903H14.2484L12.9108 12.3279C12.8046 12.4379 12.7458 12.5853 12.7471 12.7382C12.7484 12.8912 12.8098 13.0375 12.9179 13.1456C13.0261 13.2538 13.1724 13.3151 13.3253 13.3165C13.4783 13.3178 13.6256 13.259 13.7357 13.1527L16.069 10.8194L16.0731 10.8153Z" fill="#989898"/>
</svg>
