<svg width="21" height="21" viewBox="0 0 21 21" fill="none" xmlns="http://www.w3.org/2000/svg">
<circle cx="10.407" cy="10.407" r="10.407" fill="#D9D9D9"/>
<g clip-path="url(#clip0_142_466)">
<path d="M15.1614 11.0389L16.5155 12.0922C16.656 12.2125 16.686 12.353 16.6058 12.5135L15.3118 14.7403C15.2316 14.9008 15.1012 14.9409 14.9206 14.8607L13.3257 14.2287C12.9646 14.4895 12.6035 14.7002 12.2424 14.8607L12.0016 16.5459C11.9816 16.7264 11.8712 16.8167 11.6706 16.8167H9.11275C8.93219 16.8167 8.82185 16.7264 8.78173 16.5459L8.54099 14.8607C8.15981 14.7002 7.7987 14.4895 7.45765 14.2287L5.86275 14.8607C5.68219 14.9209 5.55179 14.8807 5.47154 14.7403L4.17756 12.5135C4.09731 12.353 4.12741 12.2125 4.26784 12.0922L5.622 11.0389C5.60194 10.7982 5.59191 10.5875 5.59191 10.407C5.59191 10.2264 5.60194 10.0158 5.622 9.77503L4.26784 8.72179C4.12741 8.60142 4.09731 8.46099 4.17756 8.30049L5.47154 6.07364C5.57185 5.91315 5.70225 5.87302 5.86275 5.95327L7.45765 6.58522C7.81876 6.32441 8.17987 6.11377 8.54099 5.95327L8.78173 4.26809C8.82185 4.08753 8.93219 3.99725 9.11275 3.99725H11.6706C11.8712 3.99725 11.9816 4.08753 12.0016 4.26809L12.2424 5.95327C12.6235 6.11377 12.9847 6.32441 13.3257 6.58522L14.9206 5.95327C15.1012 5.89309 15.2316 5.93321 15.3118 6.07364L16.6058 8.30049C16.686 8.46099 16.656 8.60142 16.5155 8.72179L15.1614 9.77503C15.2015 10.0158 15.2215 10.2264 15.2215 10.407C15.2215 10.5875 15.2015 10.7982 15.1614 11.0389ZM10.3917 12.6639C11.0036 12.6639 11.5302 12.4432 11.9715 12.0019C12.4129 11.5605 12.6336 11.0289 12.6336 10.407C12.6336 9.78506 12.4129 9.25343 11.9715 8.81207C11.5302 8.37071 11.0036 8.15003 10.3917 8.15003C9.7798 8.15003 9.25318 8.37071 8.81182 8.81207C8.37046 9.25343 8.14978 9.78506 8.14978 10.407C8.14978 11.0289 8.37046 11.5605 8.81182 12.0019C9.25318 12.4432 9.7798 12.6639 10.3917 12.6639Z" fill="#989898"/>
</g>
<defs>
<clipPath id="clip0_142_466">
<rect width="13" height="13" fill="white" transform="translate(3.90674 3.90698)"/>
</clipPath>
</defs>
</svg>
