<svg width="23" height="23" viewBox="0 0 23 23" fill="none" xmlns="http://www.w3.org/2000/svg">
<path d="M11.5 21.0834C6.20715 21.0834 1.91669 16.7929 1.91669 11.5C1.91669 6.20715 6.20715 1.91669 11.5 1.91669C16.7929 1.91669 21.0834 6.20715 21.0834 11.5C21.0834 16.7929 16.7929 21.0834 11.5 21.0834ZM11.5 19.1667C13.5333 19.1667 15.4834 18.359 16.9212 16.9212C18.359 15.4834 19.1667 13.5333 19.1667 11.5C19.1667 9.46669 18.359 7.51665 16.9212 6.07887C15.4834 4.64109 13.5333 3.83335 11.5 3.83335C9.46669 3.83335 7.51665 4.64109 6.07887 6.07887C4.64109 7.51665 3.83335 9.46669 3.83335 11.5C3.83335 13.5333 4.64109 15.4834 6.07887 16.9212C7.51665 18.359 9.46669 19.1667 11.5 19.1667ZM7.66669 12.4584H15.3334C15.3334 13.475 14.9295 14.45 14.2106 15.1689C13.4917 15.8878 12.5167 16.2917 11.5 16.2917C10.4834 16.2917 9.50833 15.8878 8.78944 15.1689C8.07055 14.45 7.66669 13.475 7.66669 12.4584ZM7.66669 10.5417C7.28544 10.5417 6.9198 10.3902 6.65022 10.1207C6.38064 9.85107 6.22919 9.48544 6.22919 9.10419C6.22919 8.72294 6.38064 8.3573 6.65022 8.08772C6.9198 7.81814 7.28544 7.66669 7.66669 7.66669C8.04794 7.66669 8.41357 7.81814 8.68315 8.08772C8.95274 8.3573 9.10419 8.72294 9.10419 9.10419C9.10419 9.48544 8.95274 9.85107 8.68315 10.1207C8.41357 10.3902 8.04794 10.5417 7.66669 10.5417ZM15.3334 10.5417C14.9521 10.5417 14.5865 10.3902 14.3169 10.1207C14.0473 9.85107 13.8959 9.48544 13.8959 9.10419C13.8959 8.72294 14.0473 8.3573 14.3169 8.08772C14.5865 7.81814 14.9521 7.66669 15.3334 7.66669C15.7146 7.66669 16.0802 7.81814 16.3498 8.08772C16.6194 8.3573 16.7709 8.72294 16.7709 9.10419C16.7709 9.48544 16.6194 9.85107 16.3498 10.1207C16.0802 10.3902 15.7146 10.5417 15.3334 10.5417Z" fill="#B9B9B9"/>
</svg>
