<svg width="30" height="30" viewBox="0 0 30 30" fill="none" xmlns="http://www.w3.org/2000/svg">
<path d="M22.955 8.29378C22.0161 7.3578 20.7445 6.83221 19.4188 6.83221C18.0931 6.83221 16.8214 7.3578 15.8825 8.29378L10.215 13.9625C9.92344 14.2523 9.69231 14.5971 9.53502 14.9769C9.37774 15.3567 9.29743 15.764 9.29877 16.175C9.29877 16.5854 9.37966 16.9917 9.53682 17.3708C9.69397 17.7499 9.92431 18.0943 10.2147 18.3843C10.505 18.6743 10.8497 18.9042 11.2289 19.0609C11.6082 19.2176 12.0147 19.298 12.425 19.2975C13.225 19.2975 14.0238 18.995 14.6338 18.385L17.2863 15.7338C17.7543 15.2646 18.0172 14.629 18.0172 13.9663C18.0172 13.3036 17.7543 12.6679 17.2863 12.1988L12.8663 16.6175C12.7489 16.7349 12.5897 16.8008 12.4238 16.8008C12.2578 16.8008 12.0986 16.7349 11.9813 16.6175C11.8639 16.5002 11.798 16.341 11.798 16.175C11.798 16.0091 11.8639 15.8499 11.9813 15.7325L17.65 10.0613C18.1199 9.59367 18.7559 9.33116 19.4188 9.33116C20.0817 9.33116 20.7176 9.59367 21.1875 10.0613C21.6553 10.5306 21.9179 11.1662 21.9179 11.8288C21.9179 12.4914 21.6553 13.127 21.1875 13.5963L15.5163 19.2675L12.3475 22.4363C11.8782 22.904 11.2426 23.1667 10.58 23.1667C9.91742 23.1667 9.28183 22.904 8.81252 22.4363C8.34415 21.9673 8.08107 21.3316 8.08107 20.6688C8.08107 20.006 8.34415 19.3703 8.81252 18.9013L8.93127 18.7813C8.36132 18.013 8.05366 17.0817 8.05377 16.125L7.04502 17.1338C6.10859 18.0719 5.58264 19.3433 5.58264 20.6688C5.58264 21.9943 6.10859 23.2657 7.04502 24.2038C8.01877 25.1775 9.30002 25.6663 10.58 25.6663C11.86 25.6663 13.1413 25.1775 14.115 24.2038L22.955 15.3638C23.8915 14.4257 24.4174 13.1543 24.4174 11.8288C24.4174 10.5033 23.8915 9.23191 22.955 8.29378Z" fill="#B9B9B9"/>
</svg>
