<svg width="40" height="40" viewBox="0 0 40 40" fill="none" xmlns="http://www.w3.org/2000/svg">
<rect width="40" height="40" rx="5" fill="#DAACFF"/>
<path fill-rule="evenodd" clip-rule="evenodd" d="M9.92414 18.1076C9.93703 17.9241 10.004 17.7486 10.1166 17.6032C10.2292 17.4578 10.3824 17.3491 10.5568 17.2907L28.3137 11.3718C28.4777 11.3169 28.6538 11.3088 28.8221 11.3484C28.9904 11.388 29.1444 11.4738 29.2666 11.5961C29.3889 11.7183 29.4747 11.8723 29.5143 12.0406C29.5539 12.209 29.5458 12.385 29.4909 12.549L23.572 30.3059C23.5138 30.4805 23.4052 30.6339 23.2599 30.7467C23.1145 30.8596 22.9389 30.9268 22.7554 30.9398C22.5718 30.9528 22.3885 30.9111 22.2287 30.8199C22.0689 30.7287 21.9397 30.5922 21.8574 30.4276L18.4889 23.6891L22.0317 20.1463C22.2061 19.9719 22.3041 19.7353 22.3041 19.4886C22.3041 19.242 22.2061 19.0054 22.0317 18.831C21.8573 18.6566 21.6207 18.5586 21.3741 18.5586C21.1274 18.5586 20.8908 18.6566 20.7164 18.831L17.1736 22.3738L10.4345 19.0059C10.2701 18.9235 10.1339 18.7943 10.0429 18.6345C9.95195 18.4747 9.91105 18.2909 9.92414 18.1076Z" fill="white"/>
</svg>
