<svg width="83" height="83" viewBox="0 0 83 83" fill="none" xmlns="http://www.w3.org/2000/svg">
<circle cx="41.0542" cy="41.0542" r="41.0542" fill="#CFE8FF"/>
<path fill-rule="evenodd" clip-rule="evenodd" d="M30.4552 27.8061C30.4552 24.9952 31.5718 22.2994 33.5594 20.3118C35.547 18.3242 38.2428 17.2076 41.0536 17.2076C43.8645 17.2076 46.5603 18.3242 48.5479 20.3118C50.5355 22.2994 51.6521 24.9952 51.6521 27.8061C51.6521 30.617 50.5355 33.3127 48.5479 35.3003C46.5603 37.288 43.8645 38.4046 41.0536 38.4046C38.2428 38.4046 35.547 37.288 33.5594 35.3003C31.5718 33.3127 30.4552 30.617 30.4552 27.8061ZM30.4552 43.7038C26.9415 43.7038 23.5718 45.0996 21.0873 47.5841C18.6028 50.0686 17.207 53.4383 17.207 56.9519C17.207 59.0601 18.0445 61.0819 19.5352 62.5726C21.0259 64.0634 23.0477 64.9008 25.1559 64.9008H56.9514C59.0596 64.9008 61.0814 64.0634 62.5721 62.5726C64.0628 61.0819 64.9003 59.0601 64.9003 56.9519C64.9003 53.4383 63.5045 50.0686 61.02 47.5841C58.5355 45.0996 55.1658 43.7038 51.6521 43.7038H30.4552Z" fill="#7DACD6"/>
</svg>
