<svg width="11" height="11" viewBox="0 0 11 11" fill="none" xmlns="http://www.w3.org/2000/svg">
<path d="M4.52677 5.27216L0.154593 0.901037C0.105581 0.852024 0.0667027 0.793838 0.0401776 0.729801C0.0136524 0.665763 5.16427e-10 0.597129 0 0.527815C-5.16427e-10 0.458501 0.0136524 0.389866 0.0401776 0.325829C0.0667027 0.261791 0.105581 0.203605 0.154593 0.154593C0.203605 0.105581 0.261791 0.0667027 0.325829 0.0401776C0.389866 0.0136524 0.458501 -5.16427e-10 0.527815 0C0.597129 5.16427e-10 0.665763 0.0136524 0.729801 0.0401776C0.793838 0.0667027 0.852024 0.105581 0.901037 0.154593L5.27216 4.52677L9.64328 0.154593C9.74226 0.0556088 9.87651 0 10.0165 0C10.1565 0 10.2907 0.0556088 10.3897 0.154593C10.4887 0.253578 10.5443 0.38783 10.5443 0.527815C10.5443 0.6678 10.4887 0.802052 10.3897 0.901037L6.01754 5.27216L10.3897 9.64328C10.4887 9.74226 10.5443 9.87651 10.5443 10.0165C10.5443 10.1565 10.4887 10.2907 10.3897 10.3897C10.2907 10.4887 10.1565 10.5443 10.0165 10.5443C9.87651 10.5443 9.74226 10.4887 9.64328 10.3897L5.27216 6.01754L0.901037 10.3897C0.802052 10.4887 0.6678 10.5443 0.527815 10.5443C0.38783 10.5443 0.253578 10.4887 0.154593 10.3897C0.0556088 10.2907 0 10.1565 0 10.0165C0 9.87651 0.0556088 9.74226 0.154593 9.64328L4.52677 5.27216Z" fill="black"/>
</svg>
