<svg width="22" height="22" viewBox="0 0 22 22" fill="none" xmlns="http://www.w3.org/2000/svg">
<rect width="21.2574" height="21.2574" rx="7" fill="#BEECB9"/>
<path d="M5.53033 10.4697C5.23744 10.1768 4.76256 10.1768 4.46967 10.4697C4.17678 10.7626 4.17678 11.2374 4.46967 11.5303L5 11L5.53033 10.4697ZM8.0052 15.0659L8.53553 15.5962L9.59619 14.5355L9.06586 14.0052L8.53553 14.5355L8.0052 15.0659ZM5 11L4.46967 11.5303L8.0052 15.0659L8.53553 14.5355L9.06586 14.0052L5.53033 10.4697L5 11Z" fill="#67AB5F"/>
<path d="M8.46967 13.5407L7.93934 14.071L9 15.1317L9.53033 14.6014L9 14.071L8.46967 13.5407ZM16.6014 7.53031C16.8943 7.23741 16.8943 6.76254 16.6014 6.46965C16.3085 6.17675 15.8336 6.17675 15.5407 6.46965L16.0711 6.99998L16.6014 7.53031ZM9 14.071L9.53033 14.6014L16.6014 7.53031L16.0711 6.99998L15.5407 6.46965L8.46967 13.5407L9 14.071Z" fill="#67AB5F"/>
</svg>
